<svg width="18" height="18" viewBox="0 0 18 18" fill="none" xmlns="http://www.w3.org/2000/svg">
<path d="M9 17L16.2333 15.0271C16.4917 14.9751 16.75 14.7154 16.75 14.4039V1.42329C16.75 1.16368 16.5433 0.95609 16.2333 1.00801L9 2.98096" stroke="#6C6B80" stroke-width="1.5" stroke-miterlimit="10" stroke-linecap="round" stroke-linejoin="round"/>
<path d="M9 2.98438L9 16.4842" stroke="#4F46E5" stroke-width="1.5" stroke-miterlimit="10" stroke-linecap="round" stroke-linejoin="round"/>
<path d="M9 17L1.76667 15.0271C1.50833 14.9751 1.25 14.7154 1.25 14.4039V1.42329C1.25 1.16368 1.45667 0.95609 1.76667 1.00801L9 2.98096" fill="#6C6B80"/>
<path d="M9 17L1.76667 15.0271C1.50833 14.9751 1.25 14.7154 1.25 14.4039V1.42329C1.25 1.16368 1.45667 0.95609 1.76667 1.00801L9 2.98096" stroke="#6C6B80" stroke-width="1.5" stroke-miterlimit="10" stroke-linecap="round" stroke-linejoin="round"/>
<path d="M3.32031 4.90625L6.93698 5.63311" stroke="#EEF2FF" stroke-width="1.5" stroke-miterlimit="10" stroke-linecap="round" stroke-linejoin="round"/>
<path d="M3.32031 7.5L5.38698 7.91528" stroke="#EEF2FF" stroke-width="1.5" stroke-miterlimit="10" stroke-linecap="round" stroke-linejoin="round"/>
</svg>
