<svg width="28" height="29" viewBox="0 0 28 29" fill="none" xmlns="http://www.w3.org/2000/svg">
<path d="M17.6581 0.863985C18.5585 1.69133 15.7358 2.032 12.7671 10.6461C9.38471 20.4769 11.1124 24.1026 12.7184 26.5603C13.8621 28.3123 8.8007 27.6067 7.82735 26.6333C4.25031 23.1536 9.0197 18.5545 6.14833 17.5082C4.00697 16.7052 6.36734 24.1999 4.61531 23.8593C0.989603 23.1293 -0.15408 15.3668 0.0162553 13.0065C0.235258 9.7701 1.57361 9.89176 2.76596 8.40741C4.00697 6.89873 4.44498 4.9277 5.41833 3.24868C6.80534 0.839652 15.3708 -1.22871 17.6581 0.863985ZM10.6987 7.14206C11.5504 5.70638 12.0371 4.19769 10.6257 5.77938C8.38703 8.28575 4.20164 15.1965 7.51102 14.7585C9.79838 14.4422 8.9467 10.0864 10.6987 7.14206Z" fill="#4F46E5"/>
<path d="M28.0035 13.253C27.9305 16.4164 15.5447 15.2727 18.8784 18.509C21.7011 21.2344 24.3291 15.6863 26.9571 15.9783C28.5145 16.1487 27.9305 18.1197 27.6142 19.166C26.2271 23.7408 21.4577 28.1452 16.664 28.1452C11.2133 28.1452 11.6513 16.8057 13.671 10.9656C16.2747 3.47085 19.0001 1.08616 20.6547 1.67017C24.2805 2.91118 27.9305 7.46157 27.5168 10.7223C27.2248 13.0583 16.4694 12.6933 18.927 13.983C20.8007 14.9563 28.0278 12.2553 28.0035 13.253Z" fill="#4F46E5"/>
</svg>
